<?xml version="1.0" encoding="utf-8"?>
<!-- Generator: Adobe Illustrator 26.3.1, SVG Export Plug-In . SVG Version: 6.00 Build 0)  -->
<svg version="1.1" id="Layer_1" xmlns="http://www.w3.org/2000/svg" xmlns:xlink="http://www.w3.org/1999/xlink" x="0px" y="0px"
	 viewBox="0 0 1000 1000" style="enable-background:new 0 0 1000 1000;" xml:space="preserve">
<g>
	<path d="M949.5,472.9c-4.8-71.2-71.4-98.3-106.1-102.6c-1.7-0.2-3.3-0.3-5-0.3H650c2.7-12.2,10.2-29.1,28.6-49.6
		c66.8-74.6,42.7-183.5,41.7-188.1c-0.2-0.9-0.5-1.9-0.7-2.8C702.2,73.2,658.3,40.9,599,40.9c-29.6,0-53.3,8.1-55.9,9.1
		c-14.9,5.3-25.3,18.9-26.5,34.7c-4.4,58.6-15.6,121.4-24.2,135.1c-20.3,23.1-58.6,59.8-95.5,86.7c-34.5,25.1-45,69.3-54.2,108.3
		c-4.7,19.7-9.5,40.1-16.4,52.9c-12.2,22.7-40,24.5-40.7,24.6c-21.6,0.6-38.8,18.3-38.8,39.9l-0.6,356.4c0,12.7,4.4,25,14.6,32.6
		c10,7.4,21.3,10.1,33.2,6.8c0.8-0.1,2.2-0.2,4.2-0.2c10.4,0,33.5,2,71.9,15.6c11,3.9,44.7,15.7,176.5,15.7
		c98.7,0,221.1-7.2,262-15.4c41.2-8.2,70.5-32.1,78.2-63.8c4.5-18.5,1-37.4-9.4-53.9c2-1,4-2,6-3.1c16.4-8.6,28-23.9,32.7-42.9
		c6.2-25.8-1.2-55.5-11-77.7c9.2-6.8,19.7-15.8,28.3-28.5c23.7-34.9,18.3-82.6-13.2-116.2c-0.9-0.9-0.7-3.5-0.2-4.1
		C952.4,527.4,950.6,484.1,949.5,472.9z M868.6,492.4c-16.6,14.1-26.9,34.9-28.5,57.3c-1.6,23.2,6.5,45.9,22,62.5
		c4.7,5,8,12.6,5.3,16.5c-3.1,4.6-9.8,9.3-16.2,13.8c-8.3,5.8-17.6,12.5-24.6,22.4c-12.9,18.4-12.6,41.6,0.7,60.5
		c5,7.1,10.1,21.7,11.1,30.6c-0.3,0.2-0.7,0.3-1,0.5c-24.3,12.3-51.8,26.3-55,57.7c-1.3,12.5,1.4,30.6,20.7,48.1
		c-2.5,1-5.8,2-10,2.9c-28.1,5.6-138.1,13.8-246.4,13.8c-109.7,0-142.5-8.6-150-11.2c-29-10.2-52.4-15.5-70.5-18l0.5-285.5
		c25-9,52.8-26.8,70-58.8c11.9-22.1,18-47.7,23.8-72.4c5.7-24.2,12.9-54.4,23.4-62.1c42.4-30.8,85.4-72.1,109.2-99.3
		c23.5-26.9,35-97,40.5-150.8c1.7-0.1,3.5-0.2,5.3-0.2c23.7,0,36.4,8.8,43.5,30.3c1.9,10,12.5,75.5-23.5,115.7
		c-62.8,70.1-54.6,134.8-39.8,162c7,12.9,20.5,20.9,35.2,20.9h220.8c7.2,1.4,33.3,7.9,34.6,28.6c0,0.7,0.1,1.4,0.2,2.1
		C870.1,482.8,869.7,489.4,868.6,492.4z"/>
	<path d="M179.7,509.9H50.1v410H167c39.4,0,39.4-29.3,39.4-29.3l3.5,1.2c0,0,1.2-306.8,0-346.4C208.7,505.8,179.7,509.9,179.7,509.9
		z"/>
</g>
</svg>
