<?xml version="1.0" encoding="utf-8"?>
<!-- Generator: Adobe Illustrator 26.3.1, SVG Export Plug-In . SVG Version: 6.00 Build 0)  -->
<svg version="1.1" id="Layer_1" xmlns="http://www.w3.org/2000/svg" xmlns:xlink="http://www.w3.org/1999/xlink" x="0px" y="0px"
	 viewBox="0 0 1000 1000" style="enable-background:new 0 0 1000 1000;" xml:space="preserve">
<g>
	<path d="M588.4,942V824.2c0-24.4-19.8-44.2-44.2-44.2h-5.6c24.6-21.3,27.3-58.5,6-83.1c-21.3-24.6-58.5-27.3-83.1-6
		s-27.3,58.5-6,83.1c1.8,2.1,3.8,4.1,6,6h-5.6c-24.4,0-44.2,19.8-44.2,44.2V942c0,8.1,6.6,14.7,14.7,14.7h147.3
		C581.8,956.7,588.4,950.1,588.4,942z M500,706.4c16.3,0,29.5,13.2,29.5,29.5s-13.2,29.5-29.5,29.5c-16.3,0-29.5-13.2-29.5-29.5
		S483.7,706.4,500,706.4z M558.9,927.3H441.1V824.2c0-8.1,6.6-14.7,14.7-14.7h88.4c8.1,0,14.7,6.6,14.7,14.7V927.3z"/>
	<path d="M411.6,190.9v117.8c0,8.1,6.6,14.7,14.7,14.7h147.3c8.1,0,14.7-6.6,14.7-14.7V190.9c0-24.4-19.8-44.2-44.2-44.2h-5.6
		c24.6-21.3,27.3-58.5,6-83.1c-21.3-24.6-58.5-27.3-83.1-6s-27.3,58.5-6,83.1c1.8,2.1,3.8,4.1,6,6h-5.6
		C431.4,146.7,411.6,166.5,411.6,190.9z M500,73.1c16.3,0,29.5,13.2,29.5,29.5S516.3,132,500,132c-16.3,0-29.5-13.2-29.5-29.5
		S483.7,73.1,500,73.1z M544.2,176.2c8.1,0,14.7,6.6,14.7,14.7V294H441.1V190.9c0-8.1,6.6-14.7,14.7-14.7H544.2z"/>
	<path d="M58.2,507.5v117.8c0,8.1,6.6,14.7,14.7,14.7h147.3c8.1,0,14.7-6.6,14.7-14.7V507.5c0-24.4-19.8-44.2-44.2-44.2h-5.6
		c24.6-21.3,27.3-58.5,6-83.1c-21.3-24.6-58.5-27.3-83.1-6s-27.3,58.5-6,83.1c1.8,2.1,3.8,4.1,6,6h-5.6
		C77.9,463.4,58.2,483.1,58.2,507.5z M146.5,389.7c16.3,0,29.5,13.2,29.5,29.5s-13.2,29.5-29.5,29.5s-29.5-13.2-29.5-29.5
		S130.3,389.7,146.5,389.7z M190.7,492.8c8.1,0,14.7,6.6,14.7,14.7v103.1H87.6V507.5c0-8.1,6.6-14.7,14.7-14.7H190.7z"/>
	<path d="M765.1,507.5v117.8c0,8.1,6.6,14.7,14.7,14.7h147.3c8.1,0,14.7-6.6,14.7-14.7V507.5c0-24.4-19.8-44.2-44.2-44.2H892
		c24.6-21.3,27.3-58.5,6-83.1c-21.3-24.6-58.5-27.3-83.1-6s-27.3,58.5-6,83.1c1.8,2.1,3.8,4.1,6,6h-5.6
		C784.9,463.4,765.1,483.1,765.1,507.5z M853.5,389.7c16.3,0,29.5,13.2,29.5,29.5s-13.2,29.5-29.5,29.5S824,435.4,824,419.2
		S837.2,389.7,853.5,389.7z M897.7,492.8c8.1,0,14.7,6.6,14.7,14.7v103.1H794.6V507.5c0-8.1,6.6-14.7,14.7-14.7H897.7z"/>
	<path d="M397.6,475.8c-1.7,5.3-0.3,11.2,3.7,15.1l38.6,37.7l-9.1,53.2c-1.4,8,4,15.6,12,17c3.2,0.5,6.5,0,9.3-1.5l47.7-25.1
		l47.7,25c5,2.6,11,2.2,15.5-1.1c4.5-3.3,6.8-8.9,5.9-14.4l-9.1-53.2l38.6-37.6c5.8-5.7,6-15,0.3-20.8c-2.3-2.3-5.2-3.8-8.4-4.3
		l-53.4-7.8l-23.9-48.4c-4.3-7.3-13.7-9.7-21-5.4c-2.2,1.3-4.1,3.2-5.4,5.4L463,458l-53.4,7.8C404,466.5,399.4,470.4,397.6,475.8z
		 M474.8,486.1c4.8-0.7,8.9-3.7,11.1-8.1l14.1-28.6l14.1,28.6c2.1,4.3,6.3,7.4,11.1,8.1l31.5,4.6l-22.8,22.2c-3.5,3.4-5,8.3-4.2,13
		l5.4,31.4l-28.2-14.8c-4.3-2.3-9.4-2.3-13.7,0l-28.2,14.8l5.4-31.4c0.8-4.8-0.8-9.6-4.2-13l-22.8-22.2L474.8,486.1z"/>
	<rect x="838.7" y="824.2" width="29.5" height="29.6"/>
	<rect x="720.9" y="824.3" width="29.4" height="29.5"/>
	<rect x="662" y="824.3" width="29.4" height="29.5"/>
	<rect x="190.8" y="824.3" width="29.5" height="29.5"/>
	<rect x="249.7" y="824.3" width="29.5" height="29.5"/>
	<rect x="779.8" y="824.3" width="29.4" height="29.5"/>
	<rect x="308.6" y="824.3" width="29.4" height="29.5"/>
	<rect x="131.8" y="824.2" width="29.6" height="29.5"/>
	<rect x="131.8" y="765.3" width="29.5" height="29.5"/>
	<rect x="131.8" y="706.4" width="29.5" height="29.4"/>
	<rect x="131.8" y="264.5" width="29.5" height="29.4"/>
	<rect x="131.8" y="205.7" width="29.5" height="29.5"/>
	<rect x="131.8" y="146.7" width="29.5" height="29.6"/>
	<rect x="308.6" y="146.7" width="29.4" height="29.5"/>
	<rect x="190.8" y="146.7" width="29.4" height="29.5"/>
	<rect x="662" y="146.7" width="29.4" height="29.5"/>
	<rect x="720.8" y="146.7" width="29.5" height="29.5"/>
	<rect x="249.7" y="146.7" width="29.4" height="29.5"/>
	<rect x="779.7" y="146.7" width="29.5" height="29.5"/>
	<rect x="838.6" y="146.7" width="29.6" height="29.5"/>
	<rect x="838.7" y="706.4" width="29.5" height="29.4"/>
	<rect x="838.7" y="765.3" width="29.5" height="29.5"/>
	<rect x="838.7" y="205.7" width="29.5" height="29.5"/>
	<rect x="838.7" y="264.5" width="29.5" height="29.4"/>
</g>
</svg>
