<?xml version="1.0" encoding="utf-8"?>
<!-- Generator: Adobe Illustrator 26.3.1, SVG Export Plug-In . SVG Version: 6.00 Build 0)  -->
<svg version="1.1" id="Layer_1" xmlns="http://www.w3.org/2000/svg" xmlns:xlink="http://www.w3.org/1999/xlink" x="0px" y="0px"
	 viewBox="0 0 1000 1000" style="enable-background:new 0 0 1000 1000;" xml:space="preserve">
<path d="M500,901.5c-13,0-25-6-33-17l-112-149H210c-69,0-125-56-125-124v-388c0-69,56-125,125-125h581c68,1,124,57,124,125v387
	c0,69-56,125-124,125H633l-98,148c-7,11-20,18-33,18C501,901.5,500,901.5,500,901.5z M210,182.5c-23,0-42,19-42,42v387
	c0,23,19,42,42,42h165c13,0,25,6,33,17l89,119l78-117c8-12,21-18,35-18h180c23,0,41-19,41-42v-389c0-23-19-42-41-42H210V182.5z
	 M500,472.5c-31,0-55-25-55-55s25-55,55-55s55,25,55,55S531,472.5,500,472.5z M500,472.5c-31,0-55-25-55-55s25-55,55-55s55,25,55,55
	S531,472.5,500,472.5z M320,472.5c-31,0-55-25-55-55s25-55,55-55s55,25,55,55S351,472.5,320,472.5z M680,472.5c-31,0-55-25-55-55
	s25-55,55-55c31,0,55,25,55,55S710,472.5,680,472.5z"/>
</svg>
