<?xml version="1.0" encoding="utf-8"?>
<!-- Generator: Adobe Illustrator 26.3.1, SVG Export Plug-In . SVG Version: 6.00 Build 0)  -->
<svg version="1.1" id="Layer_1" xmlns="http://www.w3.org/2000/svg" xmlns:xlink="http://www.w3.org/1999/xlink" x="0px" y="0px"
	 viewBox="0 0 1000 1000" style="enable-background:new 0 0 1000 1000;" xml:space="preserve">
<g id="Logo_1_">
	<path id="white_background" d="M861.5,314.4c1,8,1,16,1,24c0,247-188,531-531,531l0,0c-101,0-201-29-286-84c15,2,30,3,44,3
		c84,0,166-28,232-80c-80-2-150-54-174-130c28,5,57,4,84-3c-87-18-150-94-150-183c0-1,0-2,0-2c26,14,55,22,85,23
		c-82-55-107-164-58-249c95,117,235,188,385,195c-15-65,6-133,54-178c75-71,193-67,264,8c42-8,82-24,119-45c-14,43-43,80-82,103
		c36-4,72-14,106-29C929.5,255.4,897.5,288.4,861.5,314.4z"/>
</g>
</svg>
