<?xml version="1.0" encoding="utf-8"?>
<!-- Generator: Adobe Illustrator 26.3.1, SVG Export Plug-In . SVG Version: 6.00 Build 0)  -->
<svg version="1.1" id="Layer_1" xmlns="http://www.w3.org/2000/svg" xmlns:xlink="http://www.w3.org/1999/xlink" x="0px" y="0px"
	 viewBox="0 0 1000 1000" style="enable-background:new 0 0 1000 1000;" xml:space="preserve">
<style type="text/css">
	.st0{fill-rule:evenodd;clip-rule:evenodd;fill:#181616;}
	.st1{fill:#181616;}
</style>
<g>
	<path class="st0" d="M500,90.9c-231.9,0-419.2,187.2-419.2,419.2c0,184.4,120.2,342.3,286.4,396.8c21,4.2,27.9-9.8,27.9-19.6
		s0-43.3,0-78.2c-116,25.1-141.1-48.9-141.1-48.9c-19.6-48.9-46.1-61.5-46.1-61.5c-37.7-26.5,2.8-25.1,2.8-25.1
		c41.9,2.8,64.3,43.3,64.3,43.3c37.7,64.3,97.8,46.1,121.6,34.9c4.2-26.5,14-46.1,26.5-55.9c-93.6-11.2-191.4-46.1-191.4-206.8
		c0-46.1,16.8-82.4,43.3-111.8c-4.2-11.2-18.2-53.1,4.2-110.4c0,0,34.9-11.2,114.6,43.3c33.5-9.8,69.9-14,104.8-14
		s71.3,4.2,104.8,14C683,255.8,718,267,718,267c22.4,57.3,8.4,100.6,4.2,110.4c26.5,29.3,43.3,67.1,43.3,111.8
		c0,160.7-97.8,197-191.4,206.8c15.4,12.6,27.9,39.1,27.9,78.2c0,55.9,0,100.6,0,114.6c0,11.2,7,23.8,29.3,19.6
		C799,852.4,919.2,694.5,919.2,510.1C919.2,278.1,731.9,90.9,500,90.9z"/>
	<path class="st1" d="M240.1,693.1c-1.4,1.4-4.2,2.8-7,1.4c-2.8-1.4-4.2-4.2-4.2-7c1.4-2.8,4.2-2.8,7-1.4
		C238.7,687.5,240.1,690.3,240.1,693.1L240.1,693.1z"/>
	<path class="st1" d="M256.9,711.3c-1.4,1.4-5.6,1.4-8.4-1.4c-2.8-2.8-2.8-7-1.4-8.4c1.4-1.4,5.6-1.4,8.4,1.4
		C258.3,705.7,258.3,709.9,256.9,711.3L256.9,711.3z"/>
	<path class="st1" d="M273.7,735c-2.8,1.4-7,0-9.8-4.2c-2.8-4.2-2.8-8.4,0-9.8c2.8-1.4,7,0,9.8,4.2S276.4,733.6,273.7,735L273.7,735
		z"/>
	<path class="st1" d="M296,758.8c-2.8,2.8-7,1.4-11.2-1.4s-4.2-8.4-2.8-11.2c2.8-2.8,7-1.4,11.2,1.4
		C297.4,751.8,298.8,756,296,758.8L296,758.8z"/>
	<path class="st1" d="M326.7,772.7c-1.4,2.8-5.6,4.2-9.8,2.8c-4.2-1.4-8.4-5.6-7-8.4c1.4-2.8,5.6-4.2,11.2-2.8
		C325.4,765.8,328.1,768.5,326.7,772.7L326.7,772.7z"/>
	<path class="st1" d="M361.7,775.5c0,2.8-4.2,7-8.4,7c-5.6,0-8.4-2.8-9.8-5.6c0-2.8,4.2-7,8.4-7
		C357.5,768.5,361.7,771.3,361.7,775.5L361.7,775.5z"/>
	<path class="st1" d="M393.8,769.9c0,2.8-2.8,7-8.4,8.4c-4.2,1.4-9.8-1.4-9.8-4.2c0-2.8,2.8-7,8.4-8.4
		C388.2,764.4,392.4,765.8,393.8,769.9L393.8,769.9z"/>
</g>
</svg>
