<?xml version="1.0" encoding="utf-8"?>
<!-- Generator: Adobe Illustrator 26.3.1, SVG Export Plug-In . SVG Version: 6.00 Build 0)  -->
<svg version="1.1" id="Layer_1" xmlns="http://www.w3.org/2000/svg" xmlns:xlink="http://www.w3.org/1999/xlink" x="0px" y="0px"
	 viewBox="0 0 640 640" style="enable-background:new 0 0 640 640;" xml:space="preserve">
<g>
	<polygon points="491,406 544,406 544,616 71,616 71,406 123,406 123,563 491,563 	"/>
	<path d="M181,390l258,54l11-52l-258-54L181,390z M215,266l239,111l22-48L237,218L215,266z M281,149l203,169l34-41L315,108L281,149z
		 M412,24l-42,31l157,212l42-31L412,24z M176,511h263v-53H176V511z"/>
</g>
</svg>
