<?xml version="1.0" encoding="utf-8"?>
<!-- Generator: Adobe Illustrator 26.3.1, SVG Export Plug-In . SVG Version: 6.00 Build 0)  -->
<svg version="1.1" id="Layer_1" xmlns="http://www.w3.org/2000/svg" xmlns:xlink="http://www.w3.org/1999/xlink" x="0px" y="0px"
	 viewBox="0 0 1000 1000" style="enable-background:new 0 0 1000 1000;" xml:space="preserve">
<g>
	<path d="M573.4,119.7c-3.3,0-6.6,0-9.9,1.1c-14.2,3.3-26.3,14.2-35.1,31.8c-1.1,0-1.1,1.1-2.2,2.2
		c-34,43.8-155.6,187.4-295.9,221.4l-107.4,27.4h-1.1c-34,9.9-63.6,30.7-82.2,61.4c-19.7,31.8-25.2,69-16.4,105.2
		s30.7,66.9,62.5,85.5c31.8,18.6,69,25.2,105.2,16.4l44.9-11l86.6,178.6c12.1,25.2,37.3,40.6,65.8,40.6c11,0,21.9-2.2,31.8-7.7
		c36.2-17.5,50.4-61.4,34-96.4L386,635.9c124.9,3.3,253.2,62.5,277.3,74.5c15.3,12.1,31.8,15.3,46,12.1c30.7-7.7,49.3-47.1,51.5-114
		c2.2-58.1-6.6-132.6-25.2-210.4C701.6,260,639.1,119.7,573.4,119.7z M184.3,633.7l-3.3,1.1c-26.3,6.6-52.6,2.2-75.6-11
		S67,588.8,60.5,562.5s-2.2-52.6,12.1-74.5c14.2-21.9,35.1-38.4,61.4-44.9l4.4-1.1L184.3,633.7z M517.5,337.8c0,0,0,1.1,0,2.2v1.1
		c4.4,34,11,69,19.7,104.1s19.7,71.2,31.8,104.1c0,1.1,0,1.1,0,2.2c0,2.2,1.1,4.4,3.3,6.6c12.1,32.9,25.2,62.5,39.5,86.6
		c-55.9-20.8-143.6-47.1-231.2-47.1c-29.6,0-59.2,3.3-87.7,9.9l-69,16.4l-46-192.9l63.6-15.3c112.9-26.3,214.8-120.6,270.7-183
		c0,1.1,0,2.2,0,2.2C510.9,265.5,513.1,300.5,517.5,337.8z M606.2,431c8.8,38.4,3.3,69-7.7,84.4c-8.8-25.2-16.4-52.6-23-80
		c-6.6-26.3-11-51.5-15.3-77.8C577.7,368.5,597.5,394.8,606.2,431z M644.6,422.2c-14.2-58.1-50.4-100.8-89.9-106.3
		c-3.3-29.6-4.4-55.9-3.3-78.9c2.2-53.7,14.2-75.6,21.9-77.8c23,0,83.3,83.3,122.7,247.7c17.5,73.4,26.3,144.7,24.1,199.5
		c-2.2,53.7-14.2,75.6-21.9,77.8c-1.1,0-3.3,0-5.5-1.1c-1.1-2.2-3.3-3.3-5.5-4.4c-1.1,0-2.2-1.1-4.4-2.2
		C661,657.8,634.7,614,612.8,557C645.7,534,657.8,479.2,644.6,422.2z M371.7,700.6L311.4,728l-36.2-74.5l26.3-6.6
		c13.2-3.3,26.3-5.5,40.6-6.6L371.7,700.6z M402.4,839.7c-7.7,4.4-16.4,4.4-25.2,1.1c-8.8-3.3-15.3-8.8-18.6-16.4L329,763l60.3-27.4
		l28.5,59.2C425.4,811.2,418.8,831,402.4,839.7z M122.9,410.1L122.9,410.1L122.9,410.1L122.9,410.1z"/>
	<path d="M843,394.8l93.2-23c5.5-1.1,9.9-4.4,12.1-8.8c2.2-4.4,3.3-9.9,2.2-15.3c-1.1-5.5-4.4-9.9-8.8-12.1
		c-4.4-2.2-9.9-3.3-15.3-2.2l-93.2,23c-5.5,1.1-9.9,4.4-12.1,8.8c-2.2,4.4-3.3,9.9-2.2,15.3c2.2,8.8,9.9,15.3,18.6,15.3l0,0
		C840.8,395.9,841.9,395.9,843,394.8z"/>
	<path d="M872.6,150.4c0-5.5-1.1-9.9-4.4-14.2s-7.7-6.6-13.2-6.6s-9.9,1.1-14.2,4.4l-85.5,71.2c-4.4,3.3-6.6,7.7-6.6,13.2
		c0,5.5,1.1,9.9,4.4,14.2c3.3,4.4,8.8,6.6,14.2,6.6h1.1c4.4,0,8.8-2.2,13.2-4.4l84.4-71.2C869.3,160.3,871.5,155.9,872.6,150.4z"/>
	<path d="M977.8,562.5c-2.2-4.4-6.6-7.7-12.1-8.8l-103-25.2c-5.5-1.1-11,0-15.3,2.2c-4.4,2.2-7.7,6.6-8.8,12.1
		c-1.1,5.5,0,9.9,2.2,15.3c2.2,4.4,6.6,7.7,12.1,8.8l103,25.2c1.1,0,3.3,1.1,4.4,1.1s2.2,0,3.3,0l0,0c7.7-1.1,14.2-7.7,15.3-14.2
		C982.2,572.3,981.1,566.9,977.8,562.5z"/>
</g>
</svg>
